/* XPM */
static char *_eb69d882c6345b8b058fd8243c3ca8dm9Hc9PCa22T2EbyP[] = {
/* columns rows colors chars-per-pixel */
"32 32 24 1 ",
"  c black",
". c #4E0F00",
"X c #510F00",
"o c #4F1000",
"O c #521000",
"+ c #4A4758",
"@ c #474958",
"# c #494858",
"$ c #8F3827",
"% c #8F3729",
"& c #8F3928",
"* c #903727",
"= c #903928",
"- c #DF6647",
"; c #DF6848",
": c #E06846",
"> c #E06748",
", c #C2BFD0",
"< c #C1C0CE",
"1 c #C1C0D0",
"2 c #F8F8F6",
"3 c #F9F7F8",
"4 c #F7F9F8",
"5 c #F8F8F8",
/* pixels */
"                                ",
"                                ",
"                                ",
"                                ",
"                                ",
"                                ",
"            oooooooo            ",
"            OooooooO            ",
"          oo>>>>>>>>oo          ",
"          oo>>>>>;>:oo          ",
"        oo>>55>>*$$$>-oo        ",
"        .o>>25>>$$=$>>oo        ",
"      Xo>>$$>>>>$$$$$%:>oX      ",
"      oo>>$$>>>>$$&$$$>>oo      ",
"        >>$$=$    $$$$;>        ",
"        >>$$$$    $$$*>>        ",
"      #@  $$  111<  $$  @#      ",
"      ##  $$  1111  $$  ##      ",
"      ##35    1,11    11##      ",
"      +#55    1111    11#+      ",
"        ##5555    5555##        ",
"        ##4555    5525##        ",
"          ##1154551,##          ",
"          ##11455511##          ",
"            ########            ",
"            +######+            ",
"                                ",
"                                ",
"                                ",
"                                ",
"                                ",
"                                "
};
