/* XPM */
static char *dummy[]={
"32 32 363 2",
".S c #060100",
"a8 c #060606",
".u c #080100",
".t c #090100",
"#W c #0a0100",
"dJ c #0c0c0c",
"cu c #0d0d0d",
"bZ c #0e0b0b",
"dI c #0e0e0e",
"c# c #101010",
"dy c #111111",
"dH c #121212",
"a5 c #131313",
".5 c #140705",
"aO c #141414",
"dK c #151515",
"br c #171717",
"#G c #181818",
"cZ c #191919",
"du c #1a1a1a",
".v c #1c1413",
"bT c #1c1c1c",
"bN c #1e0603",
"b1 c #1f1f1f",
"co c #200a07",
"cp c #210906",
"cW c #212121",
"#U c #242424",
"bf c #252121",
"cQ c #262626",
"b2 c #270f0c",
"aa c #281412",
".T c #282121",
"bS c #282828",
"cf c #290400",
".s c #2c2625",
"cg c #2d1613",
".6 c #2d2221",
"#T c #2e110e",
"dx c #2e2e2e",
"bt c #303030",
"bA c #310500",
"bG c #32120f",
"bO c #322b2b",
"bg c #323232",
"bq c #340f0b",
"cn c #353130",
"b8 c #353535",
"bu c #361916",
"ch c #363535",
"b9 c #363636",
"a# c #380500",
"bv c #380600",
"ct c #383838",
"a4 c #3a0d08",
"bR c #3a3a3a",
"bM c #3b0500",
"aM c #3c3c3c",
"aV c #3d0600",
"aw c #3d3d3d",
"#s c #3f3f3f",
"bP c #404040",
"bH c #410600",
".4 c #423332",
"cz c #424242",
"cY c #434343",
"ce c #44221f",
"dh c #444444",
"cq c #453230",
".w c #453e3d",
".r c #454040",
"b7 c #462f2c",
"cG c #464646",
"aW c #48140e",
".U c #48403f",
"cm c #484848",
"d# c #494949",
"c7 c #4a4a4a",
"#D c #4b3431",
"#E c #4b4b4b",
"cV c #4c4c4c",
"cy c #4e4e4e",
"dv c #505050",
"aL c #512d29",
"dz c #515151",
"b0 c #525252",
".3 c #533c39",
"cM c #535353",
"cr c #554543",
"cd c #563834",
"bh c #565656",
"bU c #571a13",
"bB c #593d3a",
".P c #595959",
"ca c #5b5b5b",
"cA c #5e5e5e",
"cF c #5f5f5f",
"cL c #606060",
"cx c #616161",
"dg c #626262",
"#a c #630a00",
"dL c #656565",
"a7 c #666666",
"aX c #673631",
"dM c #676767",
"dN c #686868",
"#V c #696464",
"cH c #696969",
".k c #6a6a6a",
".j c #6b6b6b",
"ag c #6d0b00",
"bi c #6d4a46",
"au c #6d5250",
".R c #6d6a6a",
".i c #6d6d6d",
"a9 c #6e0e03",
".C c #6e6e6e",
"c1 c #6f6f6f",
"dO c #707070",
"c. c #727272",
".x c #736d6d",
"ci c #737373",
"bY c #740f04",
".V c #742a22",
"## c #74423d",
".l c #747474",
"bw c #750c00",
"#H c #75150b",
"#n c #751910",
"af c #753c36",
"cI c #757575",
"#m c #780e02",
"#t c #78251c",
"#o c #786866",
"c6 c #787878",
"aP c #791408",
"cP c #797979",
"#X c #7a0b00",
"ax c #7a231a",
"dB c #7a7a7a",
".O c #7b7b7b",
".G c #7c241b",
"db c #7c7c7c",
"cc c #7e6e6d",
".H c #7f1a0f",
"at c #801408",
"#b c #80190d",
".D c #808080",
".L c #812117",
"bs c #818181",
".I c #820d00",
".M c #823a32",
"#p c #828282",
"b6 c #831e13",
"aY c #833028",
".N c #847d7d",
"cB c #848484",
".J c #850d00",
".K c #851407",
"be c #85170b",
".h c #858585",
".F c #865e5a",
"cw c #868686",
"dF c #898989",
"#r c #8a8a8a",
"cJ c #8b8b8b",
"cK c #8c8c8c",
".m c #8d8d8d",
"dr c #8e8e8e",
"b5 c #8f1a0d",
"#. c #8f8f8f",
"ds c #909090",
".E c #919191",
"b3 c #931002",
".2 c #931b0e",
"as c #950b00",
"bV c #95170a",
".g c #959595",
"bF c #968e8e",
"dq c #979797",
"dp c #989898",
"bz c #9b0f00",
"#C c #9b1607",
"da c #9b9b9b",
"bp c #9c1001",
"dE c #9c9c9c",
"dC c #9d9d9d",
"#c c #9e2619",
"cs c #9e9a9a",
"cb c #9e9e9e",
"#l c #9f1e10",
"dD c #9f9f9f",
"cE c #a0a0a0",
"b4 c #a11102",
"bW c #a31506",
".q c #a3a1a1",
"bL c #a50d00",
"#u c #a51000",
"aK c #a51304",
".W c #a71000",
"do c #a8a8a8",
"aU c #a90c00",
"bj c #a91707",
"dk c #a9a9a9",
".1 c #aa1100",
".n c #aaaaaa",
"dl c #ababab",
"#k c #ac2213",
"cv c #acacac",
".B c #adadad",
"#B c #ae1100",
"ae c #b1b1b1",
"bE c #b2b2b2",
"bC c #b3b2b2",
"ah c #b40900",
"bX c #b41200",
"#S c #b41402",
"bo c #b50e00",
"bx c #b61200",
"a6 c #b6b6b6",
"bK c #b70f00",
"#d c #b71e0d",
"ab c #b7b2b1",
"bD c #b7b7b7",
"dj c #b8b8b8",
"bd c #b91200",
"bk c #b91300",
"cU c #b9b9b9",
".X c #ba1200",
"c5 c #bababa",
"aJ c #bb0e00",
".9 c #bbbbbb",
"dG c #bdbdbd",
"#v c #be1300",
"b. c #bf1300",
"dm c #c0c0c0",
"a3 c #c11401",
"bQ c #c1c1c1",
"di c #c3c3c3",
"#I c #c41300",
"aN c #c4c4c4",
"bI c #c51400",
"cN c #c5c5c5",
"a. c #c61100",
"by c #c61300",
"df c #c6c6c6",
"aQ c #c71400",
"dA c #c7c7c7",
"cT c #c9c9c9",
".0 c #ca1400",
"c8 c #cacaca",
"cO c #cbcbcb",
"#R c #cc1400",
"#j c #cc1805",
"cD c #cccccc",
".f c #cdcdcd",
".7 c #cecccc",
"cS c #cfcfcf",
"cR c #d0d0d0",
"#A c #d11400",
"cC c #d1d1d1",
"b# c #d21500",
"aC c #d31500",
"aD c #d31702",
"av c #d3d3d3",
"ay c #d40900",
"#e c #d41500",
"bJ c #d51400",
"#J c #d51500",
"d. c #d5d5d5",
"aZ c #d61304",
"a2 c #d71000",
".Y c #d71500",
"c4 c #d7d7d7",
".Z c #d81500",
"#F c #d8d8d8",
"#Y c #d91400",
"bc c #d91600",
"aE c #d91d08",
"#z c #db1500",
"dt c #dbdbdb",
"#f c #dc1600",
"dc c #dcdcdc",
"cX c #dddddd",
"#9 c #de1200",
"aR c #de1300",
"aT c #e01000",
"aF c #e01707",
"dn c #e0e0e0",
"ac c #e1e1e1",
"a0 c #e21200",
"#i c #e21700",
"#w c #e31600",
"cl c #e3e3e3",
"#Q c #e41700",
"#q c #e4e4e4",
"bn c #e50500",
"#Z c #e51400",
"#g c #e61700",
"c2 c #e6e6e6",
"#h c #e71700",
".Q c #e8e8e8",
"ba c #e91700",
"de c #e9e9e9",
"ar c #ea0600",
"#P c #ea1600",
"c3 c #eaeaea",
"bl c #eb1500",
".y c #ebebeb",
"bm c #ec0600",
"#y c #ec1500",
"c0 c #ececec",
"aB c #ed0900",
"aS c #ed1100",
"bb c #ed1800",
"dw c #ededed",
"#8 c #ee1500",
".8 c #eeeeee",
"#K c #ef1100",
"dd c #efefef",
".A c #f0f0f0",
"a1 c #f11300",
"#x c #f11600",
"ai c #f20700",
"c9 c #f2f2f2",
"#7 c #f31300",
".z c #f3f3f3",
"al c #f41100",
"am c #f41200",
"cj c #f4f4f4",
"ck c #f5f5f5",
"aq c #f60500",
"aj c #f60700",
"ad c #f6f6f6",
"aI c #f70200",
"aG c #f70501",
"#O c #f70a00",
"#0 c #f70d00",
".d c #f7f7f7",
".c c #f8f8f8",
".p c #f9f9f9",
"aA c #fa0200",
"aH c #fa0300",
"#M c #fa0700",
"#L c #fa0800",
".b c #fafafa",
"ap c #fb0500",
"ak c #fb0600",
"#N c #fb0700",
".a c #fbfbfb",
"az c #fc0200",
"#6 c #fc0400",
"ao c #fc0500",
".o c #fcfcfc",
"#4 c #fd0200",
"#5 c #fd0300",
".e c #fdfdfd",
"an c #fe0100",
"#3 c #fe0200",
".# c #fefefe",
"#1 c #ff0000",
"#2 c #ff0100",
"Qt c #ffffff",
"QtQtQtQtQtQtQtQtQtQtQtQtQtQtQtQtQtQtQtQtQtQtQtQtQtQtQtQtQtQtQtQt",
"QtQtQtQtQtQtQtQtQtQtQtQtQtQtQtQtQtQtQtQtQtQtQtQtQtQtQtQtQtQtQtQt",
"QtQtQtQtQtQtQtQtQtQtQtQtQtQtQtQtQtQtQtQtQtQtQtQtQtQtQtQtQtQtQtQt",
".#QtQtQtQtQtQtQtQtQtQt.#.a.b.c.c.d.c.c.b.#QtQtQtQtQtQtQtQtQtQtQt",
".eQtQtQtQtQtQtQtQtQtQt.f.g.h.i.j.k.l.m.n.cQtQtQtQtQtQtQtQtQtQtQt",
".eQtQtQtQtQtQt.o.p.p.b.q.r.s.t.u.t.v.w.x.y.z.A.A.eQtQtQtQtQtQtQt",
".eQtQtQtQtQt.#.B.C.D.E.F.G.H.I.J.J.K.L.M.N.O.P.j.QQtQtQtQtQtQtQt",
".eQtQtQtQt.o.c.R.S.T.U.V.W.X.Y.Y.Z.0.1.2.3.4.5.6.7.8.aQtQtQtQtQt",
".#QtQtQt.#.9#.###a#b#c#d#e#f#g#h#h#i.Z#j#k#l#m#n#o#p#qQtQtQtQtQt",
".#QtQtQt.e#r#s#t#u#v.Y#w#x#x#x#x#x#x#x#y#z#A#B#C#D#E#FQtQtQtQtQt",
".#QtQtQt.o.l#G#H#I#J#h#K#L#L#L#M#M#N#N#O#P#Q#R#S#T#U.fQtQtQtQtQt",
".#QtQt.p.z#V#W#X#Y#Z#x#0#1#2#3#4#5#3#1#6#7#8#9a.a#aaabacadQtQtQt",
".#Qt.eae#pafagahaiaj#M#6#1akalalam#0ananaoapaqarasatau.iavQtQtQt",
".#Qt.a.hawax.Way#3#3#5azaAaBaCaDaEaFaGaH#6#5#2aIaJaKaLaMaNQtQtQt",
"QtQt.a.iaOaPaQaRalalalaSaTaUaVaWaXaYaZa0a1al#4aAa2a3a4a5a6QtQtQt",
"QtQt.oa7a8a9b.b##hbabbbcbdbebfbgbhbibjbk#Qblbmbnbobpbqbra6QtQtQt",
"QtQt.ebsbtbubvbwbxby#fbzbAbBbCbDbEbFbGbHbIbJbKbLbMbNbObPbQQtQtQt",
"QtQt.e#rbRbSbTbUbVbWbXbYbZb0#q#qav.nb1b2b3b4b5b6b7b8bgb9.9QtQtQt",
"QtQt.ec.c#cacbcccdcecfcgchcicjckclbQcmcncocpcqcrcs.BctcucvQtQtQt",
"QtQt.#.DbS.C.ncwcxcybtczcAcBcCcDaecE.jcFcGcmcHcIcJcKcLcMcNQtQtQt",
"QtQtQtaccOcPcQc.cRcScRcTcUcbcLcVcWctcvbQ#FcXcXcScYcZ.nc0.pQtQtQt",
"QtQtQtQtQt.hcuc1c2c0ckc3c4c5c6cHc7cLc8cX.Ac9c2d.d#b1cUQtQtQtQtQt",
"QtQtQtQtQtdactdbcCdc.8ddc9.Ac3dec2.Qc9.zdd.yd.dfdgdhdiQtQtQtQtQt",
"QtQtQtQtQtdjc1cJdkdl.Bdmdedd.p.b.p.d.ydndodpdpdqdrdsdtQtQtQtQtQt",
"QtQtQtQtQt.z.QdkcMawdudvcO#Fdw.8.8c3avc5dxdyaMdzdA.d.eQtQtQtQtQt",
"QtQtQtQtQtQtQtdAdBcHdvcHdCdDdEdpdp.gdq.E.C.kdFdqacQtQtQtQtQtQtQt",
"QtQtQtQtQtQtQt.c.8dwc3dGb0awdHdIdJdKbP.Pd.ck.d.c.eQtQtQtQtQtQtQt",
"QtQtQtQtQtQtQtQtQtQtQtdcdr#pdLdMdNdO.mcbc0QtQtQtQtQtQtQtQtQtQtQt",
"QtQtQtQtQtQtQtQtQtQtQt.oadckcjcjckck.c.b.#QtQtQtQtQtQtQtQtQtQtQt",
"QtQtQtQtQtQtQtQtQtQtQtQtQtQtQtQtQtQtQtQtQtQtQtQtQtQtQtQtQtQtQtQt",
"QtQtQtQtQtQtQtQtQtQtQtQtQtQtQtQtQtQtQtQtQtQtQtQtQtQtQtQtQtQtQtQt",
"QtQtQtQtQtQtQtQtQtQtQtQtQtQtQtQtQtQtQtQtQtQtQtQtQtQtQtQtQtQtQtQt"};
