/* XPM */
static char *f4bb86f8745643f780b357cf58a0ff2an1uKeJcbgPBf20oX[] = {
/* columns rows colors chars-per-pixel */
"32 32 37 1 ",
"  c black",
". c #0B0100",
"X c #0C0002",
"o c #0B0B0B",
"O c #0C0C0A",
"+ c #0D0B0C",
"@ c #0C0C0C",
"# c #D50B0B",
"$ c #DD0B0A",
"% c #E70B0B",
"& c #E60C0B",
"* c #E70B0D",
"= c #E90A0B",
"- c #EA0B0C",
"; c #E80C0C",
": c #E81617",
"> c #D2D2D2",
", c #DDDDDD",
"< c #E8DEDD",
"1 c #DFE1DE",
"2 c #EAE0DF",
"3 c gray88",
"4 c #E6E6E6",
"5 c #ECE2E1",
"6 c #E9E9E9",
"7 c #EFEFEF",
"8 c #F0E6E5",
"9 c #F4EAE9",
"0 c #EEF0ED",
"q c #FAF0EF",
"w c #EFEFF1",
"e c #F3F3F3",
"r c #F4F2F3",
"t c #F4F4F4",
"y c #F7F7F9",
"u c #F9F9F9",
"i c #FDFDFD",
/* pixels */
"etttreette            eteeerttte",
"ttuteetuut            tu77ettutt",
"tuiueeue@ %=%%%%%%%%=% @,7etuiut",
"ttuueet0+ %%%=%%%%=%*% +17rtuutt",
"eeeeee X$%%%%;&&&&%%%*%$X eeeeee",
"eeeeee .$%%%%%%%%%%%%&%$. eeeeee",
"etutee .$%%%*%-%%=%%%%%$. ettute",
"tuiu46 .#$%%::::::::%%$#. 46uiut",
"tuiu@@  ..%%2<q985<2%%..  @@uiut",
"etut      =%77yeew77%=      tute",
"eeee   @6e            e6@   eeee",
"ee7e   @4e            e4@   e7ee",
"e7  ee @37etuu7ettuute73@ ee  7e",
"e7  te @,7etui6etuiute7,@ e7  7e",
"et  etuuutee  ute7  eetu67et  ut",
"et  eeetteee  teee  eeeteeee  te",
"eeee   @4eee  eeet  eee4@   eeee",
"e777   @3wet  7ett  tee3@   767e",
"e746      etui%%%%iute      647e",
"e767      etuu-===uute      767e",
"ee  eee4@              @6tee  ee",
"ee  eee6@              @4eee  ee",
"tt  eet7@              @3eet  te",
"tu@@4676o X...    .... o>367@@ut",
"e7,3@@@o  $$$$    $$$$  o@@@3,7e",
"e777      %%%%    %%%%      777e",
"eeeeee .$%    %%%%    %$. teeeee",
"etttee .$%    &%%&    %$. etttte",
"etuuee .$&%%%&    &%%%&$. etuutt",
"tuiuee .$%%%%%    %%%%%$. etuiut",
"ttuteet7@     ute7     @37ettutt",
"ettteee6O     teee     O4eeettte"
};
