/* XPM */
static char *_a01e31e2e134319e5f85f5ec341d9e1ek0CHHuVE8H5fGUv[] = {
/* columns rows colors chars-per-pixel */
"32 32 21 1 ",
"  c gray1",
". c #040202",
"X c gray2",
"o c #0A0202",
"O c #0C0101",
"+ c #080707",
"@ c #090909",
"# c gray5",
"$ c #DF0C0C",
"% c #E10C0C",
"& c #E30C0C",
"* c #E60C0C",
"= c #E80C0C",
"- c #E71313",
"; c #E7E5E5",
": c #E8E7E7",
"> c gray92",
", c #EDEBEB",
"< c #EFEFEF",
"1 c #F2EFEF",
"2 c #F3F3F3",
/* pixels */
"2222222222            ,222222222",
"2222222222            ,222222222",
"22222222  *=**========. <2222222",
"22222222  *=****======. >2222222",
"222222X **==**========**o ,22222",
"222222  *===**=========*. ,22222",
"222222  *==============*. ,22222",
"222222  ================. <22222",
"2222      *=12222222-=o     <222",
"2222      ==12222222-=.     <222",
"2222    22.           >2X   ,222",
"2222    22            ,2X   >222",
"22.X<<  22<<<<<<<<<<<<22X ><@.>2",
"22  <2  2222222222222222X <2@ >2",
"22  12<<2222@X<222@X<222<<22@ >2",
"22  22222222X <222. <2222222@ >2",
"22<<XXXX2222  <222. <222@XXX;<22",
"2222    2222  <222. <222X   >222",
"2222    ..22<<-===<<22@.    >222",
"2222      2222-===2222X     >222",
"22XX<<<<  XXXX....XXXX  ;<<<#X>2",
"22  2222                <222@ >2",
"22  2222                <222+ >2",
"22  2222                <222+ >2",
"22<>@XXX  %%%%.   $%%%. XXXX;>22",
"2222      ====.   *===.     >222",
"2222<,  %%....$%%%....$%. :<2222",
"222222  *=    *===    %=. <22222",
"222222  *=%%%%Oo.o$%%%==. <22222",
"222222  ======.   *=====. <22222",
"222222>>oooooo;>>>Oooooo;>222222",
"22222222      <222.     ,2222222"
};
