/* XPM */
static char *a0f8828c90dd449fdf78192d4a1ba40fbRzyXW5G1PGFdfvF[] = {
/* columns rows colors chars-per-pixel */
"32 32 13 1 ",
"  c None",
". c #1D131E",
"X c #24242D",
"o c #2D2D2D",
"O c #31313E",
"+ c #3C3C4D",
"@ c #4A5057",
"# c #91543B",
"$ c #BA6C4C",
"% c #CF7F5E",
"& c #818B8B",
"* c #9EAAAA",
"= c #E3C48B",
/* pixels */
"                                ",
"                                ",
"                                ",
"                                ",
"                 ....           ",
"                .$$$$.          ",
"               .$#..#$.         ",
"               .$.  .#$.        ",
"               .$.   .#.        ",
"               .$.    .         ",
"             ......             ",
"            .O@@@@O.            ",
"           .O@@@@@@O.           ",
"           .O@@&@@@O.           ",
"           .O@@@&@@O.           ",
"           ...@&@@...           ",
"          .#%$.@@.$%#.          ",
"          .#$%.@&.%$#.          ",
"           .##....##.           ",
"            .XO@@OX.            ",
"           .Xo@@@@oX.           ",
"           .O@=@@=@O.           ",
"           .+@@@@@@+.           ",
"            X@@@@@@X            ",
"            .O@@@@O.            ",
"             .O@@O.             ",
"            .&.$#.&.            ",
"            .$*##*$.            ",
"            .$$..$$.            ",
"             ..  ..             ",
"                                ",
"                                "
};
